Coordinates
version=1
nRows=9
nColumns=63
inDegrees=yes

Units are S.I. units (second, meters, Newtons, ...)
If the header above contains a line with 'inDegrees', this indicates whether rotational values are in degrees (yes) or radians (no).

endheader
time	pelvis_tilt	pelvis_list	pelvis_rotation	pelvis_tx	pelvis_ty	pelvis_tz	hip_flexion_r	hip_adduction_r	hip_rotation_r	knee_angle_r	knee_angle_r_beta	ankle_angle_r	subtalar_angle_r	mtp_angle_r	hip_flexion_l	hip_adduction_l	hip_rotation_l	knee_angle_l	knee_angle_l_beta	ankle_angle_l	subtalar_angle_l	mtp_angle_l	L5_S1_Flex_Ext	L5_S1_Lat_Bending	L5_S1_axial_rotation	L4_L5_Flex_Ext	L4_L5_Lat_Bending	L4_L5_axial_rotation	L3_L4_Flex_Ext	L3_L4_Lat_Bending	L3_L4_axial_rotation	L2_L3_Flex_Ext	L2_L3_Lat_Bending	L2_L3_axial_rotation	L1_L2_Flex_Ext	L1_L2_Lat_Bending	L1_L2_axial_rotation	L1_T12_Flex_Ext	L1_T12_Lat_Bending	L1_T12_axial_rotation	Abs_r3	Abs_r2	Abs_r1	Abs_t1	Abs_t2	neck_flexion	neck_bending	neck_rotation	arm_flex_r	arm_add_r	arm_rot_r	elbow_flex_r	pro_sup_r	wrist_flex_r	wrist_dev_r	arm_flex_l	arm_add_l	arm_rot_l	elbow_flex_l	pro_sup_l	wrist_flex_l	wrist_dev_l
      1.30000000	      3.96754741	      4.28492143	     97.58104392	      0.15507194	      0.77420249	      0.76546908	      5.53771765	      5.39644826	     -2.80049285	     18.38257140	      0.32083640	     29.26273707	     -7.89079087	      0.00000000	      0.14994375	     -6.59318200	     10.25670818	      5.21113674	      0.09095149	     31.70913662	     -1.90921862	      0.00000000	     -0.22835535	      0.31490434	     -0.50178653	     -0.42407872	      0.41882277	     -0.53314819	     -0.37516500	      0.76565841	     -0.53314819	     -0.26098733	      0.76565841	     -0.43906321	     -0.21205078	      0.64215292	     -0.40770155	     -0.13048225	      0.48778682	     -0.37633990	     -1.63111942	      3.56226084	     -2.79078613	      0.00000000	      0.00000000	     19.87028712	     -6.82327204	     -6.91492528	     -4.98788941	    -18.00371891	     29.12658232	     32.14850221	     82.86075865	     -0.26418201	      4.29411739	     17.59358315	    -13.81689590	    136.94162347	     11.69083922	      7.55504921	     -1.45822841	    -18.11093961
      1.32500000	      3.40339413	      4.45179067	     97.65350116	      0.15754652	      0.77370133	      0.76312581	      4.07014719	      5.27043836	     -2.33100855	     16.41910400	      0.28656742	     28.80139597	     -8.29293203	      0.00000000	      0.22181778	     -6.10923608	      9.84638898	      6.38083024	      0.11136650	     31.47605762	     -2.34612412	      0.00000000	     -0.19529435	      0.24767698	     -0.54326291	     -0.36268114	      0.32941038	     -0.57721685	     -0.32084909	      0.60220181	     -0.57721685	     -0.22320191	      0.60220181	     -0.47535505	     -0.18135033	      0.50506290	     -0.44140112	     -0.11159119	      0.38365164	     -0.40744719	     -1.39496801	      2.80177155	     -3.02146535	      0.00000000	      0.00000000	     20.77896159	     -6.67547350	     -6.66140419	     -5.21250786	    -18.05156404	     29.10793017	     33.19812300	     83.09041047	     -0.15387116	      4.00712543	     17.06984270	    -13.87085950	    135.93902733	     11.22725321	      6.88893208	     -1.67362584	    -18.78431178
      1.35000000	      3.39532184	      5.04079079	     98.61772838	      0.15963179	      0.77404421	      0.75990370	      1.81788986	      6.33054905	      1.49115655	     13.64632970	      0.23817338	     26.16317719	    -14.83025027	      0.00000000	      0.13029679	     -6.25608638	     13.05292080	      7.70280936	      0.13443938	     31.37222757	     -5.55318235	      0.00000000	     -0.19716880	      0.25088771	     -0.88889668	     -0.36616218	      0.33368066	     -0.94445272	     -0.32392862	      0.61000838	     -0.94445272	     -0.22534422	      0.61000838	     -0.77778459	     -0.18309095	      0.51161022	     -0.72222855	     -0.11266225	      0.38862506	     -0.66667251	     -1.40835704	      2.83809197	     -4.94377664	      0.00000000	      0.00000000	     21.50899690	     -6.04691667	     -5.14065004	     -4.58261727	    -18.00894273	     29.74050590	     33.57178050	     85.23331212	     -0.51619647	      3.83551303	     15.38929369	    -14.11289712	    130.66867251	     10.46470972	      7.48148199	     -1.93212173	    -19.90015002
      1.37500000	      3.06234515	      5.45026383	     99.22049949	      0.16218288	      0.77431584	      0.75683171	      0.14271206	      6.46035902	      1.46496459	     11.77598177	      0.20552965	     25.64804724	    -15.24281612	      0.00000000	      0.03780766	     -6.12452078	     13.71763987	      8.78561207	      0.15333786	     31.52142779	     -6.12816159	      0.00000000	     -0.17756278	      0.21719055	     -1.08522809	     -0.32975184	      0.28886343	     -1.15305485	     -0.29171789	      0.52807709	     -1.15305485	     -0.20293650	      0.52807709	     -0.94957458	     -0.16488480	      0.44289496	     -0.88174782	     -0.10145937	      0.33642816	     -0.81392107	     -1.26831318	      2.45690290	     -6.03571307	      0.00000000	      0.00000000	     21.82149321	     -5.54428240	     -4.85487124	     -3.87818667	    -18.20650107	     31.62396447	     34.00542450	     86.26571523	     -1.41318300	      3.28945398	     13.64640802	    -13.60437999	    130.20003783	      8.02076837	      6.88944288	     -1.48573699	    -20.11426595
      1.40000000	      2.69868278	      5.76542855	     99.49206998	      0.16588745	      0.77457857	      0.75408084	     -1.10865297	      6.56247289	      1.57215247	     10.53123081	      0.18380465	     25.38690434	    -15.52820725	      0.00000000	     -0.03833678	     -5.90003756	     15.17033260	      9.82568677	      0.17149059	     31.40075405	     -8.21328778	      0.00000000	     -0.15749876	      0.17593468	     -1.25443719	     -0.29249094	      0.23399313	     -1.33283951	     -0.25875471	      0.42776759	     -1.33283951	     -0.18000533	      0.42776759	     -1.09763254	     -0.14625335	      0.35876601	     -1.01923021	     -0.08999479	      0.27252282	     -0.94082789	     -1.12499788	      1.99020832	     -6.97680330	      0.00000000	      0.00000000	     21.63335391	     -4.87704574	     -4.69219048	     -2.24200065	    -18.62989812	     36.86641551	     33.78532708	     86.39029568	     -3.48513188	      1.84119203	     11.41896699	    -12.62873322	    135.54946829	      3.37511959	      2.94111063	      0.54039164	    -19.82440759
      1.42500000	      2.35501928	      6.09332133	     99.80678652	      0.16992622	      0.77508172	      0.75138437	     -2.12585875	      6.67631084	      1.46582370	      9.81995564	      0.17139056	     25.14715273	    -15.56660013	      0.00000000	     -0.16015092	     -5.80756105	     15.64423403	     10.70946204	      0.18691537	     31.60983154	     -8.81259993	      0.00000000	     -0.13797031	      0.14516982	     -1.39838273	     -0.25622467	      0.19307587	     -1.48578165	     -0.22667142	      0.35296591	     -1.48578165	     -0.15768627	      0.35296591	     -1.22358489	     -0.12811923	      0.29603031	     -1.13618597	     -0.07883624	      0.22486806	     -1.04878705	     -0.98550814	      1.64219009	     -7.77738523	      0.00000000	      0.00000000	     20.96374397	     -4.27036402	     -4.38231383	     -0.60223482	    -18.90447042	     42.04301878	     33.42710784	     87.08642997	     -5.87713585	      0.69575808	      9.97292500	    -12.17476394	    137.96266934	      1.13035152	      2.05904390	      0.41189488	    -19.49760864
      1.45000000	      2.01501819	      6.41273768	     99.98889431	      0.17444626	      0.77591766	      0.74889328	     -2.87638350	      6.78104173	      1.51351468	      9.63742038	      0.16820472	     24.87556787	    -15.53060009	      0.00000000	     -0.35047544	     -5.73383497	     16.13606748	     11.41787290	      0.19927948	     31.78569029	     -9.61222520	      0.00000000	     -0.11627640	      0.12526962	     -1.48442958	     -0.21593689	      0.16660859	     -1.57720643	     -0.19103049	      0.30458055	     -1.57720643	     -0.13289229	      0.30458055	     -1.29887588	     -0.10797426	      0.25544981	     -1.20609903	     -0.06644033	      0.19404264	     -1.11332218	     -0.83055066	      1.41707499	     -8.25595199	      0.00000000	      0.00000000	     19.90739037	     -3.84115545	     -3.94191704	      0.90424530	    -19.05766815	     46.72889139	     33.00649547	     87.03421015	     -8.33888427	     -0.24955906	      9.29295905	    -11.92942937	    140.79687098	      0.61093982	      1.93399922	     -1.29815286	    -18.95041334
      1.47500000	      1.65476339	      6.70494389	    100.09040970	      0.17943090	      0.77691002	      0.74667080	     -3.44686448	      6.87123793	      1.68895080	      9.73573099	      0.16992056	     24.64218827	    -15.67366860	      0.00000000	     -0.54246840	     -5.65627752	     16.56608252	     12.02615770	      0.20989605	     31.86577727	    -10.46630092	      0.00000000	     -0.09046775	      0.10785461	     -1.54270271	     -0.16800766	      0.14344663	     -1.63912163	     -0.14862947	      0.26223770	     -1.63912163	     -0.10339559	      0.26223770	     -1.34986487	     -0.08400835	      0.21993712	     -1.25344595	     -0.05169327	      0.16706679	     -1.15702703	     -0.64620210	      1.22007292	     -8.58004966	      0.00000000	      0.00000000	     18.36470642	     -3.39087574	     -3.09907936	      2.12190110	    -19.03425160	     50.20510554	     32.66546064	     86.38195598	    -10.28432343	     -0.81991952	      8.92990939	    -11.78756267	    145.85992108	      0.43977837	      2.38194304	     -3.14653375	    -17.78765653
      1.50000000	      1.34246565	      6.91820322	    100.03614871	      0.18461635	      0.77804293	      0.74496840	     -3.84997077	      6.96998100	      1.97304996	      9.86342666	      0.17214927	     24.18472762	    -16.01027183	      0.00000000	     -0.72124651	     -5.63409441	     16.84098114	     12.43148854	      0.21697041	     31.81608499	    -11.03937111	      0.00000000	     -0.06331081	      0.10228243	     -1.59092028	     -0.11757450	      0.13603563	     -1.69035280	     -0.10401332	      0.24868950	     -1.69035280	     -0.07235792	      0.24868950	     -1.39205525	     -0.05879041	      0.20857433	     -1.29262273	     -0.03617579	      0.15843549	     -1.19319021	     -0.45222275	      1.15703932	     -8.84822134	      0.00000000	      0.00000000	     16.41620503	     -2.69545579	     -1.18365114	      3.04070614	    -18.94712401	     52.47630668	     32.51406163	     85.62326972	    -11.42780001	     -1.11167931	      8.89391685	    -11.67753214	    153.61036997	      0.36884027	      5.11246062	     -5.45508074	    -15.93439069
